<mxfile host="app.diagrams.net" modified="2023-04-16T23:16:49.150Z" agent="Mozilla/5.0 (Windows NT 10.0; Win64; x64) AppleWebKit/537.36 (KHTML, like Gecko) Chrome/112.0.0.0 Safari/537.36" etag="UREcjo9b8VkYRPNvDFSV" version="21.1.8" type="github">
  <diagram name="Page-1" id="8mOlQEoM5lNCEel4gsf7">
    <mxGraphModel dx="1050" dy="541" grid="1" gridSize="10" guides="1" tooltips="1" connect="1" arrows="1" fold="1" page="1" pageScale="1" pageWidth="850" pageHeight="1100" math="0" shadow="0">
      <root>
        <mxCell id="0" />
        <mxCell id="1" parent="0" />
        <mxCell id="m6w3_sldZP9uRyNZ0UM3-2" value="Chassis" style="rounded=0;whiteSpace=wrap;html=1;" vertex="1" parent="1">
          <mxGeometry x="480" y="150" width="100" height="200" as="geometry" />
        </mxCell>
        <mxCell id="m6w3_sldZP9uRyNZ0UM3-1" value="raspberry pi" style="rounded=0;whiteSpace=wrap;html=1;" vertex="1" parent="1">
          <mxGeometry x="497.5" y="160" width="65" height="56" as="geometry" />
        </mxCell>
        <mxCell id="m6w3_sldZP9uRyNZ0UM3-3" value="Power Bank" style="rounded=0;whiteSpace=wrap;html=1;" vertex="1" parent="1">
          <mxGeometry x="485" y="290" width="90" height="60" as="geometry" />
        </mxCell>
        <mxCell id="m6w3_sldZP9uRyNZ0UM3-4" value="AA Batteries" style="rounded=0;whiteSpace=wrap;html=1;" vertex="1" parent="1">
          <mxGeometry x="497.5" y="258" width="58" height="32" as="geometry" />
        </mxCell>
      </root>
    </mxGraphModel>
  </diagram>
</mxfile>
